<svg width="41" height="41" viewBox="0 0 41 41" fill="none" xmlns="http://www.w3.org/2000/svg">
<g id="ant-design:twitter-circle-filled">
<path id="Vector" d="M20.7594 2.88794C11.0953 2.88794 3.2594 10.7239 3.2594 20.3879C3.2594 30.052 11.0953 37.8879 20.7594 37.8879C30.4235 37.8879 38.2594 30.052 38.2594 20.3879C38.2594 10.7239 30.4235 2.88794 20.7594 2.88794ZM29.1696 16.0793C29.1813 16.2629 29.1813 16.4543 29.1813 16.6418C29.1813 22.3762 24.8141 28.9817 16.8336 28.9817C14.3727 28.9817 12.0914 28.2668 10.1696 27.0364C10.5211 27.0754 10.8571 27.0911 11.2164 27.0911C13.2477 27.0911 15.1149 26.4036 16.6031 25.2395C14.6969 25.2004 13.0953 23.9504 12.5485 22.2317C13.2164 22.3293 13.818 22.3293 14.5055 22.1536C13.524 21.9542 12.6417 21.4211 12.0087 20.6449C11.3756 19.8687 11.0308 18.8973 11.0328 17.8958V17.8411C11.6071 18.1653 12.2828 18.3645 12.9899 18.3918C12.3955 17.9957 11.9081 17.4591 11.5708 16.8295C11.2335 16.1999 11.0568 15.4967 11.0563 14.7825C11.0563 13.9739 11.2672 13.2356 11.6461 12.595C12.7356 13.9361 14.0951 15.033 15.6362 15.8144C17.1774 16.5957 18.8657 17.044 20.5914 17.1301C19.9781 14.1809 22.1813 11.7942 24.8297 11.7942C26.0797 11.7942 27.2047 12.3176 27.9977 13.1614C28.9781 12.9778 29.9156 12.6106 30.7516 12.1184C30.4274 13.1223 29.7477 13.97 28.8453 14.5051C29.7203 14.4114 30.5641 14.1692 31.3453 13.8293C30.7555 14.6965 30.0172 15.4661 29.1696 16.0793Z" fill="white"/>
</g>
</svg>
