<svg width="41" height="41" viewBox="0 0 41 41" fill="none" xmlns="http://www.w3.org/2000/svg">
<g id="bxl:instagram-alt">
<path id="Vector" d="M35.6711 14.2295C35.6542 12.9672 35.4179 11.7175 34.9727 10.5362C34.5866 9.53979 33.997 8.63487 33.2413 7.87925C32.4857 7.12364 31.5808 6.53395 30.5844 6.14787C29.4183 5.71013 28.1864 5.47344 26.9411 5.44787C25.3377 5.3762 24.8294 5.3562 20.7594 5.3562C16.6894 5.3562 16.1677 5.3562 14.5761 5.44787C13.3313 5.47362 12.1 5.71031 10.9344 6.14787C9.93782 6.53368 9.03276 7.12328 8.27712 7.87892C7.52147 8.63457 6.93188 9.53963 6.54606 10.5362C6.10745 11.7014 5.87127 12.9331 5.84773 14.1779C5.77606 15.7829 5.75439 16.2912 5.75439 20.3612C5.75439 24.4312 5.75439 24.9512 5.84773 26.5445C5.87273 27.7912 6.10773 29.0212 6.54606 30.1895C6.93252 31.1858 7.52255 32.0905 8.27845 32.8458C9.03435 33.6012 9.9395 34.1905 10.9361 34.5762C12.0985 35.0315 13.33 35.2852 14.5777 35.3262C16.1827 35.3979 16.6911 35.4195 20.7611 35.4195C24.8311 35.4195 25.3527 35.4195 26.9444 35.3262C28.1896 35.3017 29.4217 35.0655 30.5877 34.6279C31.5839 34.2413 32.4886 33.6515 33.2441 32.8959C33.9997 32.1404 34.5895 31.2357 34.9761 30.2395C35.4144 29.0729 35.6494 27.8429 35.6744 26.5945C35.7461 24.9912 35.7677 24.4829 35.7677 20.4112C35.7644 16.3412 35.7644 15.8245 35.6711 14.2295ZM20.7494 28.0579C16.4927 28.0579 13.0444 24.6095 13.0444 20.3529C13.0444 16.0962 16.4927 12.6479 20.7494 12.6479C22.7929 12.6479 24.7527 13.4596 26.1977 14.9046C27.6426 16.3496 28.4544 18.3094 28.4544 20.3529C28.4544 22.3964 27.6426 24.3562 26.1977 25.8011C24.7527 27.2461 22.7929 28.0579 20.7494 28.0579ZM28.7611 14.1595C28.5251 14.1598 28.2913 14.1134 28.0732 14.0232C27.8552 13.933 27.657 13.8007 27.4901 13.6338C27.3233 13.4669 27.1909 13.2688 27.1007 13.0507C27.0105 12.8326 26.9642 12.5989 26.9644 12.3629C26.9644 12.127 27.0108 11.8935 27.1011 11.6756C27.1913 11.4578 27.3236 11.2598 27.4904 11.093C27.6571 10.9263 27.8551 10.794 28.073 10.7037C28.2909 10.6135 28.5244 10.567 28.7602 10.567C28.9961 10.567 29.2296 10.6135 29.4475 10.7037C29.6653 10.794 29.8633 10.9263 30.0301 11.093C30.1968 11.2598 30.3291 11.4578 30.4194 11.6756C30.5096 11.8935 30.5561 12.127 30.5561 12.3629C30.5561 13.3562 29.7527 14.1595 28.7611 14.1595Z" fill="white"/>
<path id="Vector_2" d="M20.7494 25.3579C23.5136 25.3579 25.7544 23.1171 25.7544 20.3529C25.7544 17.5887 23.5136 15.3479 20.7494 15.3479C17.9852 15.3479 15.7444 17.5887 15.7444 20.3529C15.7444 23.1171 17.9852 25.3579 20.7494 25.3579Z" fill="white"/>
</g>
</svg>
