<svg width="60" height="61" viewBox="0 0 60 61" fill="none" xmlns="http://www.w3.org/2000/svg">
<g id="majesticons:burger">
<g id="Group">
<path id="Vector" d="M35 38.25L42.93 30.32C44.2565 28.9947 46.0549 28.2501 47.93 28.25H50C51.3261 28.25 52.5979 28.7768 53.5355 29.7145C54.4732 30.6521 55 31.9239 55 33.25C55 34.5761 54.4732 35.8479 53.5355 36.7855C52.5979 37.7232 51.3261 38.25 50 38.25H10C8.67392 38.25 7.40215 37.7232 6.46447 36.7855C5.52678 35.8479 5 34.5761 5 33.25C5 31.9239 5.52678 30.6521 6.46447 29.7145C7.40215 28.7768 8.67392 28.25 10 28.25H19.1425C22.8925 28.25 26.49 29.74 29.1425 32.3925L35 38.25Z" stroke="white" stroke-width="2.91667" stroke-linecap="round" stroke-linejoin="round"/>
<path id="Vector_2" d="M7.5 38.25H52.5V43.25C52.5 45.2391 51.7098 47.1468 50.3033 48.5533C48.8968 49.9598 46.9891 50.75 45 50.75H15C13.0109 50.75 11.1032 49.9598 9.6967 48.5533C8.29018 47.1468 7.5 45.2391 7.5 43.25V38.25Z" fill="white" stroke="white" stroke-width="2.91667" stroke-linecap="round" stroke-linejoin="round"/>
<path id="Vector_3" fill-rule="evenodd" clip-rule="evenodd" d="M13.6675 12.135C18.175 9.3925 23.95 8.25 30 8.25C36.05 8.25 41.825 9.3925 46.3325 12.135C50.9425 14.9375 54.105 19.35 54.8375 25.455C55.205 28.515 52.6675 30.75 50 30.75H10C7.3325 30.75 4.795 28.515 5.1625 25.455C5.895 19.35 9.0575 14.9375 13.6675 12.135ZM17.5 15.75C16.837 15.75 16.2011 16.0134 15.7322 16.4822C15.2634 16.9511 15 17.587 15 18.25C15 18.913 15.2634 19.5489 15.7322 20.0178C16.2011 20.4866 16.837 20.75 17.5 20.75C18.163 20.75 18.8014 20.4866 19.2703 20.0178C19.7391 19.5489 20.0025 18.913 20.0025 18.25C20.0025 17.587 19.7391 16.9511 19.2703 16.4822C18.8014 16.0134 18.163 15.75 17.5 15.75ZM37.5 18.25C37.5 17.587 37.7634 16.9511 38.2322 16.4822C38.7011 16.0134 39.337 15.75 40 15.75C40.663 15.75 41.3014 16.0134 41.7703 16.4822C42.2391 16.9511 42.5025 17.587 42.5025 18.25C42.5025 18.913 42.2391 19.5489 41.7703 20.0178C41.3014 20.4866 40.6655 20.75 40.0025 20.75C39.3395 20.75 38.7011 20.4866 38.2322 20.0178C37.7634 19.5489 37.5 18.913 37.5 18.25ZM27.5 20.75C26.837 20.75 26.2011 21.0134 25.7322 21.4822C25.2634 21.9511 25 22.587 25 23.25C25 23.913 25.2634 24.5489 25.7322 25.0178C26.2011 25.4866 26.837 25.75 27.5 25.75H27.5025C28.1655 25.75 28.8014 25.4866 29.2703 25.0178C29.7391 24.5489 30.0025 23.913 30.0025 23.25C30.0025 22.587 29.7391 21.9511 29.2703 21.4822C28.8014 21.0134 28.1655 20.75 27.5025 20.75H27.5Z" fill="white"/>
</g>
</g>
</svg>
