<svg width="24" height="24" viewBox="0 0 24 24" fill="none" xmlns="http://www.w3.org/2000/svg">
<g id="ph:map-pin-fill">
<path id="Vector" d="M12.0094 1.5C9.82213 1.50248 7.72515 2.37247 6.17851 3.91911C4.63187 5.46575 3.76188 7.56273 3.7594 9.75C3.7594 16.8094 11.2594 22.1437 11.5781 22.3687C11.7059 22.4538 11.8559 22.4992 12.0094 22.4992C12.1629 22.4992 12.3129 22.4538 12.4406 22.3687C12.7594 22.1437 20.2594 16.8094 20.2594 9.75C20.2569 7.56273 19.3869 5.46575 17.8403 3.91911C16.2937 2.37247 14.1967 1.50248 12.0094 1.5ZM12.0094 6.75C12.6027 6.75 13.1828 6.92595 13.6761 7.25559C14.1695 7.58524 14.554 8.05377 14.781 8.60195C15.0081 9.15013 15.0675 9.75333 14.9518 10.3353C14.836 10.9172 14.5503 11.4518 14.1307 11.8713C13.7112 12.2909 13.1766 12.5766 12.5947 12.6924C12.0127 12.8081 11.4095 12.7487 10.8613 12.5216C10.3132 12.2946 9.84464 11.9101 9.51499 11.4167C9.18535 10.9234 9.0094 10.3433 9.0094 9.75C9.0094 8.95435 9.32547 8.19129 9.88808 7.62868C10.4507 7.06607 11.2138 6.75 12.0094 6.75Z" fill="white"/>
</g>
</svg>
