<svg width="41" height="41" viewBox="0 0 41 41" fill="none" xmlns="http://www.w3.org/2000/svg">
<g id="ri:whatsapp-fill">
<path id="Vector" d="M4.09934 37.0545L6.35267 28.7745C4.8679 26.2293 4.08783 23.3345 4.09267 20.3879C4.09267 11.1829 11.5543 3.72119 20.7593 3.72119C29.9643 3.72119 37.426 11.1829 37.426 20.3879C37.426 29.5929 29.9643 37.0545 20.7593 37.0545C17.814 37.0593 14.9204 36.2798 12.376 34.7962L4.09934 37.0545ZM14.7443 12.5679C14.5291 12.5812 14.3188 12.6379 14.126 12.7345C13.9452 12.8369 13.7802 12.9649 13.636 13.1145C13.436 13.3029 13.3227 13.4662 13.201 13.6245C12.585 14.4262 12.2537 15.4102 12.2593 16.4212C12.2627 17.2379 12.476 18.0329 12.8093 18.7762C13.491 20.2795 14.6127 21.8712 16.0943 23.3462C16.451 23.7012 16.7993 24.0579 17.1743 24.3895C19.0133 26.0086 21.2048 27.1763 23.5743 27.7995L24.5227 27.9445C24.831 27.9612 25.1393 27.9379 25.4493 27.9229C25.9347 27.8978 26.4087 27.7664 26.8377 27.5379C27.0559 27.4254 27.2689 27.3031 27.476 27.1712C27.476 27.1712 27.5477 27.1245 27.6843 27.0212C27.9093 26.8545 28.0477 26.7362 28.2343 26.5412C28.3727 26.3979 28.4927 26.2295 28.5843 26.0379C28.7143 25.7662 28.8443 25.2479 28.8977 24.8162C28.9377 24.4862 28.926 24.3062 28.921 24.1945C28.9143 24.0162 28.766 23.8312 28.6043 23.7529L27.6343 23.3179C27.6343 23.3179 26.1843 22.6862 25.2993 22.2829C25.206 22.2422 25.106 22.219 25.0043 22.2145C24.8903 22.2028 24.7751 22.2156 24.6664 22.2522C24.5578 22.2887 24.4582 22.348 24.3743 22.4262V22.4229C24.366 22.4229 24.2543 22.5179 23.0493 23.9779C22.9802 24.0708 22.8849 24.141 22.7757 24.1796C22.6664 24.2182 22.5482 24.2234 22.436 24.1945C22.3274 24.1655 22.221 24.1287 22.1177 24.0845C21.911 23.9979 21.8393 23.9645 21.6977 23.9029L21.6893 23.8995C20.7359 23.4832 19.853 22.9209 19.0727 22.2329C18.8627 22.0495 18.6677 21.8495 18.4677 21.6562C17.812 21.0283 17.2405 20.3179 16.7677 19.5429L16.6693 19.3845C16.5987 19.2781 16.5416 19.1634 16.4993 19.0429C16.436 18.7979 16.601 18.6012 16.601 18.6012C16.601 18.6012 17.006 18.1579 17.1943 17.9179C17.3512 17.7184 17.4975 17.5109 17.6327 17.2962C17.8293 16.9795 17.891 16.6545 17.7877 16.4029C17.321 15.2629 16.8377 14.1279 16.341 13.0012C16.2427 12.7779 15.951 12.6179 15.686 12.5862C15.596 12.5762 15.506 12.5662 15.416 12.5595C15.1922 12.5484 14.9679 12.5523 14.7443 12.5679Z" fill="white"/>
</g>
</svg>
