<svg width="21" height="17" viewBox="0 0 21 17" fill="none" xmlns="http://www.w3.org/2000/svg">
<path id="Vector" d="M18.7594 0.25H2.7594C1.6594 0.25 0.769399 1.15 0.769399 2.25L0.759399 14.25C0.759399 15.35 1.6594 16.25 2.7594 16.25H18.7594C19.8594 16.25 20.7594 15.35 20.7594 14.25V2.25C20.7594 1.15 19.8594 0.25 18.7594 0.25ZM18.3594 4.5L11.2894 8.92C10.9694 9.12 10.5494 9.12 10.2294 8.92L3.1594 4.5C3.05913 4.44371 2.97132 4.36766 2.90129 4.27645C2.83126 4.18525 2.78046 4.08078 2.75197 3.96937C2.72349 3.85796 2.7179 3.74194 2.73556 3.62831C2.75321 3.51468 2.79374 3.40581 2.85468 3.3083C2.91563 3.21079 2.99572 3.12666 3.09013 3.061C3.18453 2.99533 3.29127 2.94951 3.40389 2.9263C3.51652 2.90309 3.63268 2.90297 3.74535 2.92595C3.85803 2.94893 3.96486 2.99453 4.0594 3.06L10.7594 7.25L17.4594 3.06C17.5539 2.99453 17.6608 2.94893 17.7734 2.92595C17.8861 2.90297 18.0023 2.90309 18.1149 2.9263C18.2275 2.94951 18.3343 2.99533 18.4287 3.061C18.5231 3.12666 18.6032 3.21079 18.6641 3.3083C18.7251 3.40581 18.7656 3.51468 18.7832 3.62831C18.8009 3.74194 18.7953 3.85796 18.7668 3.96937C18.7383 4.08078 18.6875 4.18525 18.6175 4.27645C18.5475 4.36766 18.4597 4.44371 18.3594 4.5Z" fill="white"/>
</svg>
